#!OML:ASF F:\twosubjects\two\Thursday\Session 1\Rory.ASF
:FULLY-SPECIFIED
:DEGREES
599
root 7.37425 15.5134 10.9835 -146.936 -10.6135 167.902
lowerback 18.7154 2.08293 9.74722
upperback 4.95838 3.70733 7.38551
thorax -4.89382 1.21162 1.65169
lowerneck -6.34249 -11.468 -7.28584
upperneck -1.41108 -15.2513 16.5628
head 2.51252 -7.31824 5.32322
rclavicle -3.18055e-015 -2.54444e-014
rhumerus 48.7631 -26.6669 -108.557
rradius 107.743
rwrist -124.768
rhand -45.2957 17.9486
rfingers 7.12502
rthumb -18.0681 -11.2322
lclavicle -3.18055e-015 -2.54444e-014
lhumerus -21.6781 -56.7415 116.917
lradius 81.2247
lwrist 5.70871
lhand -36.8497 59.5316
lfingers 7.12502
lthumb -9.92968 -990.723
rfemur -5.21719 17.3218 -21.1001
rtibia 30.7136
rfoot -2.65206 -26.7252
rtoes -28.4717
lfemur -73.8073 19.3232 -32.3233
ltibia 69.4667
lfoot -19.955 -4.12753
ltoes -6.02306
600
root 7.37124 15.5133 10.9825 -147.209 -10.8363 167.913
lowerback 18.9542 1.9761 9.91794
upperback 4.99454 3.60671 7.46321
thorax -4.97523 1.1474 1.66092
lowerneck -6.48812 -11.4331 -7.3786
upperneck -1.11871 -15.2269 16.5003
head 2.62093 -7.28747 5.30462
rclavicle -2.22639e-014 -4.77083e-014
rhumerus 48.8825 -26.9444 -108.768
rradius 107.884
rwrist -125.46
rhand -45.6574 18.026
rfingers 7.12502
rthumb -18.4162 -11.1223
lclavicle -2.22639e-014 -4.77083e-014
lhumerus -21.5534 -56.6541 116.947
lradius 81.0482
lwrist 5.63264
lhand -36.7033 58.5803
lfingers 7.12502
lthumb -9.78839 -991.667
rfemur -4.68578 17.2848 -20.8066
rtibia 30.4954
rfoot -3.32231 -26.9657
rtoes -27.6568
lfemur -73.4733 19.2647 -32.1418
ltibia 69.4644
lfoot -20.019 -4.10477
ltoes -7.30785
601
root 7.36026 15.5142 10.9864 -147.581 -11.3695 167.726
lowerback 19.3166 1.66672 10.3342
upperback 4.99941 3.30909 7.49672
thorax -5.14315 0.981776 1.531
lowerneck -6.65341 -11.4105 -7.47141
upperneck -0.729603 -15.2313 16.4305
head 2.76385 -7.26608 5.27778
rclavicle 4.45278e-014 1.27222e-014
rhumerus 49.0361 -26.9495 -109.067
rradius 107.921
rwrist -125.436
rhand -45.9726 17.8186
rfingers 7.12502
rthumb -18.7194 -11.3007
lclavicle 4.45278e-014 1.27222e-014
lhumerus -21.4683 -56.6602 116.903
lradius 80.9983
lwrist 5.80178
lhand -36.8586 58.4781
lfingers 7.12502
lthumb -9.93825 -991.776
rfemur -3.68184 17.0634 -20.4197
rtibia 30.126
rfoot -3.49748 -27.1668
rtoes -27.4947
lfemur -72.9413 18.7729 -31.8693
ltibia 69.4975
lfoot -20.0847 -3.90427
ltoes -7.91511
602
root 7.37447 15.5161 10.9817 -148.011 -11.1648 168.052
lowerback 19.7914 1.81654 10.1815
upperback 5.08692 3.50585 7.61505
thorax -5.30776 1.05677 1.69371
lowerneck -6.8568 -11.4458 -7.41348
upperneck -0.343546 -15.3118 16.2305
head 2.89763 -7.28217 5.18131
rclavicle 4.45278e-014 -6.04305e-014
rhumerus 49.2204 -27.1141 -109.306
rradius 107.966
rwrist -125.448
rhand -46.2041 17.6366
rfingers 7.12502
rthumb -18.942 -11.4611
lclavicle 4.45278e-014 -6.04305e-014
lhumerus -21.3647 -56.9873 116.774
lradius 80.9913
lwrist 6.11812
lhand -37.0409 58.5167
lfingers 7.12502
lthumb -10.1141 -991.746
rfemur -3.5202 17.3961 -20.1394
rtibia 29.9255
rfoot -2.63301 -27.0562
rtoes -29.2913
lfemur -72.5716 19.2115 -31.5005
ltibia 69.5437
lfoot -20.089 -3.74259
ltoes -8.75231
603
root 7.352 15.526 10.9899 -147.91 -11.4558 167.748
lowerback 19.6598 1.6822 10.4117
upperback 5.08061 3.35914 7.56992
thorax -5.2308 0.989737 1.55344
lowerneck -7.09765 -11.5041 -7.30518
upperneck -0.101249 -15.4074 16.0616
head 2.99581 -7.30993 5.08671
rclavicle -6.04305e-014 -6.36111e-014
rhumerus 49.505 -27.3213 -109.453
rradius 108.096
rwrist -125.614
rhand -46.4405 17.679
rfingers 7.12502
rthumb -19.1693 -11.3963
lclavicle -6.04305e-014 -6.36111e-014
lhumerus -21.1972 -57.5273 116.661
lradius 81.0226
lwrist 6.5788
lhand -37.4905 57.9919
lfingers 7.12502
lthumb -10.5478 -992.293
rfemur -3.16411 16.9241 -20.281
rtibia 29.6006
rfoot -2.00679 -26.8139
rtoes -30.3677
lfemur -72.635 18.5708 -31.5768
ltibia 69.6482
lfoot -20.0525 -3.51819
ltoes -8.81688
604
root 7.35456 15.5125 11.0021 -147.613 -11.3317 168.286
lowerback 19.2637 1.89886 10.5502
upperback 5.02473 3.60961 7.75453
thorax -5.0717 1.10848 1.62846
lowerneck -6.94132 -11.4662 -7.43426
upperneck -0.220242 -15.3358 16.0814
head 2.93856 -7.28602 5.13035
rclavicle 1.27222e-014 5.08889e-014
rhumerus 49.6563 -27.4565 -109.485
rradius 108.095
rwrist -125.887
rhand -46.6823 17.795
rfingers 7.12502
rthumb -19.4018 -11.2571
lclavicle 1.27222e-014 5.08889e-014
lhumerus -21.2138 -57.6732 116.755
lradius 81.0552
lwrist 6.68294
lhand -37.6825 57.2385
lfingers 7.12502
lthumb -10.7331 -993.056
rfemur -3.81434 16.926 -20.0812
rtibia 29.5178
rfoot -2.05095 -26.8186
rtoes -30.3856
lfemur -73.1569 18.764 -31.2763
ltibia 69.6439
lfoot -20.1897 -3.19764
ltoes -9.47418
605
root 7.346 15.5272 10.992 -148.232 -11.7177 168.723
lowerback 19.7356 1.72952 11.2043
upperback 5.09292 3.51618 7.93803
thorax -5.20678 1.0212 1.48846
lowerneck -6.54278 -11.328 -7.49463
upperneck -0.475895 -15.1252 16.059
head 2.77613 -7.21197 5.182
rclavicle 5.725e-014 -1.27222e-014
rhumerus 49.7815 -27.5281 -109.843
rradius 108.154
rwrist -126.364
rhand -47.0636 17.957
rfingers 7.12502
rthumb -19.7685 -11.0577
lclavicle 5.725e-014 -1.27222e-014
lhumerus -21.2411 -57.5077 116.783
lradius 81.0452
lwrist 6.53762
lhand -37.6089 57.7147
lfingers 7.12502
lthumb -10.662 -992.576
rfemur -3.11394 17.3012 -19.143
rtibia 29.4285
rfoot -3.5461 -27.3993
rtoes -27.9756
lfemur -72.5048 18.7854 -30.3611
ltibia 69.702
lfoot -20.3197 -3.54959
ltoes -7.1634
606
root 7.34304 15.5285 11.0087 -147.615 -11.534 168.85
lowerback 19.2086 1.89418 11.0846
upperback 4.93806 3.6788 7.96934
thorax -5.10348 1.11662 1.55831
lowerneck -6.3362 -11.3114 -7.54071
upperneck -0.682775 -15.0802 16.0725
head 2.68079 -7.20662 5.214
rclavicle 1.59028e-014 -3.18055e-015
rhumerus 50.541 -27.6323 -110.859
rradius 108.772
rwrist -126.767
rhand -47.8541 18.3813
rfingers 7.12502
rthumb -20.5282 -10.5534
lclavicle 1.59028e-014 -3.18055e-015
lhumerus -21.1539 -57.6537 116.724
lradius 81.1043
lwrist 6.59943
lhand -37.8469 58.3745
lfingers 7.12502
lthumb -10.8916 -991.928
rfemur -4.00873 16.7256 -19.5038
rtibia 29.5197
rfoot -5.23444 -27.499
rtoes -24.2194
lfemur -73.3067 18.6464 -30.4622
ltibia 69.7064
lfoot -20.1589 -3.62004
ltoes -5.8063
607
root 7.34168 15.5263 11.0117 -147.382 -11.0939 168.663
lowerback 19.0961 2.10466 10.642
upperback 4.90351 3.8869 7.91209
thorax -5.10701 1.23427 1.69188
lowerneck -6.22966 -11.3919 -7.74291
upperneck -0.799632 -15.1736 16.2357
head 2.66991 -7.2575 5.29201
rclavicle 3.18055e-014 2.22639e-014
rhumerus 49.6598 -27.8916 -109.556
rradius 107.93
rwrist -126.455
rhand -46.9161 18.1764
rfingers 7.12502
rthumb -19.6266 -10.8529
lclavicle 3.18055e-014 2.22639e-014
lhumerus -21.3151 -57.9111 116.833
lradius 81.3663
lwrist 6.76146
lhand -37.9647 58.1617
lfingers 7.12502
lthumb -11.0052 -992.147
rfemur -4.31637 16.6537 -20.1073
rtibia 29.3642
rfoot -5.11247 -27.4691
rtoes -24.6375
lfemur -73.5117 18.7911 -30.9434
ltibia 69.7048
lfoot -20.3605 -3.4144
ltoes -6.97902
608
root 7.33899 15.5176 11.0164 -147.435 -11.0457 168.691
lowerback 19.1398 2.14579 10.6791
upperback 4.84429 3.96838 7.91222
thorax -5.18913 1.27073 1.65269
lowerneck -6.17287 -11.4407 -7.80446
upperneck -0.53691 -15.2812 16.2966
head 2.76079 -7.29964 5.30515
rclavicle 7.63333e-014 6.99722e-014
rhumerus 50.1633 -28.154 -110.395
rradius 107.843
rwrist -126.451
rhand -46.9497 17.5939
rfingers 7.12502
rthumb -19.6589 -11.4321
lclavicle 7.63333e-014 6.99722e-014
lhumerus -21.8419 -57.9506 117.221
lradius 81.6331
lwrist 6.94786
lhand -38.0167 58.0695
lfingers 7.12502
lthumb -11.0553 -992.242
rfemur -4.21849 16.9069 -20.0902
rtibia 29.2501
rfoot -3.56435 -27.429
rtoes -28.6345
lfemur -73.5178 18.895 -30.9918
ltibia 69.7265
lfoot -20.4198 -3.34846
ltoes -7.33908
609
root 7.33686 15.5028 11.0195 -147.497 -11.1187 168.616
lowerback 19.1172 2.10431 10.7581
upperback 4.81146 3.93492 7.88655
thorax -5.20639 1.25506 1.58929
lowerneck -6.23481 -11.4615 -7.71096
upperneck -0.136846 -15.367 16.2164
head 2.88439 -7.32325 5.24582
rclavicle 1.90833e-014 -3.81667e-014
rhumerus 50.3231 -28.4332 -110.801
rradius 107.738
rwrist -127
rhand -46.8418 17.2818
rfingers 7.12502
rthumb -19.5552 -11.7548
lclavicle 1.90833e-014 -3.81667e-014
lhumerus -22.2357 -57.9525 117.543
lradius 81.7371
lwrist 7.06779
lhand -38.2331 58.3342
lfingers 7.12502
lthumb -11.264 -991.988
rfemur -3.91434 16.9786 -20.0663
rtibia 29.0349
rfoot -2.00194 -27.2574
rtoes -31.7172
lfemur -73.4621 18.8573 -31.0128
ltibia 69.7585
lfoot -20.2417 -3.52317
ltoes -6.60528
